<mxfile host="app.diagrams.net" modified="2024-05-16T16:48:14.994Z" agent="Mozilla/5.0 (Macintosh; Intel Mac OS X 10.15; rv:125.0) Gecko/20100101 Firefox/125.0" etag="TJytlzEL7Rse6feC54HY" version="24.2.7" type="github">
  <diagram name="Page-1" id="f-ufohLoOfSdbITIlMm5">
    <mxGraphModel dx="1082" dy="694" grid="1" gridSize="10" guides="1" tooltips="1" connect="1" arrows="1" fold="1" page="1" pageScale="1" pageWidth="850" pageHeight="1100" math="0" shadow="0">
      <root>
        <mxCell id="0" />
        <mxCell id="1" parent="0" />
        <mxCell id="MFOkYEO7xA5EYMrg9p0M-8" value="" style="rounded=0;whiteSpace=wrap;html=1;" vertex="1" parent="1">
          <mxGeometry x="270" y="270" width="160" height="210" as="geometry" />
        </mxCell>
        <mxCell id="MFOkYEO7xA5EYMrg9p0M-24" style="edgeStyle=orthogonalEdgeStyle;rounded=0;orthogonalLoop=1;jettySize=auto;html=1;exitX=1;exitY=0.5;exitDx=0;exitDy=0;entryX=0;entryY=0.5;entryDx=0;entryDy=0;endArrow=none;endFill=0;strokeWidth=2;fillColor=#d5e8d4;strokeColor=#82b366;" edge="1" parent="1" source="MFOkYEO7xA5EYMrg9p0M-2" target="MFOkYEO7xA5EYMrg9p0M-4">
          <mxGeometry relative="1" as="geometry">
            <Array as="points">
              <mxPoint x="480" y="180" />
              <mxPoint x="480" y="210" />
            </Array>
          </mxGeometry>
        </mxCell>
        <mxCell id="MFOkYEO7xA5EYMrg9p0M-2" value="Triton Headnode" style="rounded=0;whiteSpace=wrap;html=1;" vertex="1" parent="1">
          <mxGeometry x="280" y="160" width="120" height="40" as="geometry" />
        </mxCell>
        <mxCell id="MFOkYEO7xA5EYMrg9p0M-25" style="edgeStyle=orthogonalEdgeStyle;rounded=0;orthogonalLoop=1;jettySize=auto;html=1;exitX=1;exitY=0.25;exitDx=0;exitDy=0;entryX=0;entryY=0.75;entryDx=0;entryDy=0;endArrow=none;endFill=0;strokeWidth=2;fillColor=#d5e8d4;strokeColor=#82b366;" edge="1" parent="1" source="MFOkYEO7xA5EYMrg9p0M-3" target="MFOkYEO7xA5EYMrg9p0M-4">
          <mxGeometry relative="1" as="geometry">
            <Array as="points">
              <mxPoint x="480" y="260" />
              <mxPoint x="480" y="220" />
            </Array>
          </mxGeometry>
        </mxCell>
        <mxCell id="MFOkYEO7xA5EYMrg9p0M-3" value="Triton Compute" style="rounded=0;whiteSpace=wrap;html=1;" vertex="1" parent="1">
          <mxGeometry x="280" y="250" width="120" height="40" as="geometry" />
        </mxCell>
        <mxCell id="MFOkYEO7xA5EYMrg9p0M-4" value="&lt;div&gt;Admin Network&lt;br&gt;&lt;/div&gt;&lt;div&gt;10.10.80.0/24&lt;br&gt;&lt;/div&gt;" style="rounded=0;whiteSpace=wrap;html=1;align=center;verticalAlign=top;" vertex="1" parent="1">
          <mxGeometry x="520" y="190" width="100" height="40" as="geometry" />
        </mxCell>
        <mxCell id="MFOkYEO7xA5EYMrg9p0M-5" value="&lt;div&gt;External Network&lt;br&gt;&lt;/div&gt;&lt;div&gt;10.10.84.0/22&lt;br&gt;&lt;/div&gt;" style="rounded=0;whiteSpace=wrap;html=1;align=center;verticalAlign=top;" vertex="1" parent="1">
          <mxGeometry x="520" y="330" width="100" height="40" as="geometry" />
        </mxCell>
        <mxCell id="MFOkYEO7xA5EYMrg9p0M-6" value="&lt;div&gt;NAT Network&lt;/div&gt;&lt;div&gt;10.10.82.0/24&lt;br&gt;&lt;/div&gt;" style="rounded=0;whiteSpace=wrap;html=1;align=center;verticalAlign=top;" vertex="1" parent="1">
          <mxGeometry x="520" y="430" width="100" height="40" as="geometry" />
        </mxCell>
        <mxCell id="MFOkYEO7xA5EYMrg9p0M-23" value="" style="edgeStyle=orthogonalEdgeStyle;rounded=0;orthogonalLoop=1;jettySize=auto;html=1;endArrow=none;endFill=0;entryX=0.017;entryY=0.563;entryDx=0;entryDy=0;entryPerimeter=0;strokeWidth=2;fillColor=#d5e8d4;strokeColor=#82b366;" edge="1" parent="1" source="MFOkYEO7xA5EYMrg9p0M-9" target="MFOkYEO7xA5EYMrg9p0M-5">
          <mxGeometry relative="1" as="geometry" />
        </mxCell>
        <mxCell id="MFOkYEO7xA5EYMrg9p0M-9" value="vpp-client" style="rounded=0;whiteSpace=wrap;html=1;" vertex="1" parent="1">
          <mxGeometry x="290" y="300" width="190" height="40" as="geometry" />
        </mxCell>
        <mxCell id="MFOkYEO7xA5EYMrg9p0M-22" style="edgeStyle=orthogonalEdgeStyle;rounded=0;orthogonalLoop=1;jettySize=auto;html=1;exitX=1;exitY=0.75;exitDx=0;exitDy=0;entryX=0;entryY=0.25;entryDx=0;entryDy=0;endArrow=none;endFill=0;strokeWidth=2;fillColor=#d5e8d4;strokeColor=#82b366;" edge="1" parent="1" source="MFOkYEO7xA5EYMrg9p0M-10" target="MFOkYEO7xA5EYMrg9p0M-6">
          <mxGeometry relative="1" as="geometry">
            <Array as="points">
              <mxPoint x="520" y="443" />
            </Array>
          </mxGeometry>
        </mxCell>
        <mxCell id="MFOkYEO7xA5EYMrg9p0M-10" value="vpp-test" style="rounded=0;whiteSpace=wrap;html=1;align=right;" vertex="1" parent="1">
          <mxGeometry x="290" y="360" width="190" height="110" as="geometry" />
        </mxCell>
        <mxCell id="MFOkYEO7xA5EYMrg9p0M-20" value="VPP" style="rounded=1;whiteSpace=wrap;html=1;verticalAlign=bottom;align=right;" vertex="1" parent="1">
          <mxGeometry x="300" y="380" width="120" height="70" as="geometry" />
        </mxCell>
        <mxCell id="MFOkYEO7xA5EYMrg9p0M-11" value="vpp-int" style="rounded=0;whiteSpace=wrap;html=1;" vertex="1" parent="1">
          <mxGeometry x="320" y="390" width="60" height="20" as="geometry" />
        </mxCell>
        <mxCell id="MFOkYEO7xA5EYMrg9p0M-14" value="vpp-int-host" style="rounded=0;whiteSpace=wrap;html=1;" vertex="1" parent="1">
          <mxGeometry x="310" y="370" width="80" height="20" as="geometry" />
        </mxCell>
        <mxCell id="MFOkYEO7xA5EYMrg9p0M-16" value="vpp-ext-host" style="rounded=0;whiteSpace=wrap;html=1;" vertex="1" parent="1">
          <mxGeometry x="310" y="440" width="80" height="20" as="geometry" />
        </mxCell>
        <mxCell id="MFOkYEO7xA5EYMrg9p0M-17" value="vpp-ext" style="rounded=0;whiteSpace=wrap;html=1;" vertex="1" parent="1">
          <mxGeometry x="320" y="420" width="60" height="20" as="geometry" />
        </mxCell>
        <mxCell id="MFOkYEO7xA5EYMrg9p0M-21" style="edgeStyle=orthogonalEdgeStyle;rounded=0;orthogonalLoop=1;jettySize=auto;html=1;exitX=1;exitY=0.25;exitDx=0;exitDy=0;entryX=0;entryY=0.75;entryDx=0;entryDy=0;endArrow=none;endFill=0;strokeWidth=2;fillColor=#d5e8d4;strokeColor=#82b366;" edge="1" parent="1" source="MFOkYEO7xA5EYMrg9p0M-10" target="MFOkYEO7xA5EYMrg9p0M-5">
          <mxGeometry relative="1" as="geometry" />
        </mxCell>
        <mxCell id="MFOkYEO7xA5EYMrg9p0M-29" style="edgeStyle=orthogonalEdgeStyle;rounded=0;orthogonalLoop=1;jettySize=auto;html=1;exitX=1;exitY=0.75;exitDx=0;exitDy=0;entryX=0;entryY=0.5;entryDx=0;entryDy=0;endArrow=none;endFill=0;strokeWidth=2;fillColor=#d5e8d4;strokeColor=#82b366;" edge="1" parent="1" source="MFOkYEO7xA5EYMrg9p0M-26" target="MFOkYEO7xA5EYMrg9p0M-11">
          <mxGeometry relative="1" as="geometry">
            <Array as="points">
              <mxPoint x="270" y="400" />
              <mxPoint x="270" y="400" />
            </Array>
          </mxGeometry>
        </mxCell>
        <mxCell id="MFOkYEO7xA5EYMrg9p0M-26" value="&lt;div&gt;VPP Internal&lt;br&gt;&lt;/div&gt;&lt;div&gt;10.10.83.0/30&lt;br&gt;&lt;/div&gt;" style="rounded=0;whiteSpace=wrap;html=1;align=center;verticalAlign=top;" vertex="1" parent="1">
          <mxGeometry x="160" y="370" width="100" height="40" as="geometry" />
        </mxCell>
        <mxCell id="MFOkYEO7xA5EYMrg9p0M-30" style="edgeStyle=orthogonalEdgeStyle;rounded=0;orthogonalLoop=1;jettySize=auto;html=1;exitX=1;exitY=0.25;exitDx=0;exitDy=0;entryX=0;entryY=0.5;entryDx=0;entryDy=0;endArrow=none;endFill=0;strokeWidth=2;fillColor=#d5e8d4;strokeColor=#82b366;" edge="1" parent="1" source="MFOkYEO7xA5EYMrg9p0M-27" target="MFOkYEO7xA5EYMrg9p0M-17">
          <mxGeometry relative="1" as="geometry" />
        </mxCell>
        <mxCell id="MFOkYEO7xA5EYMrg9p0M-31" style="edgeStyle=orthogonalEdgeStyle;rounded=0;orthogonalLoop=1;jettySize=auto;html=1;exitX=1;exitY=0.75;exitDx=0;exitDy=0;entryX=0;entryY=0.5;entryDx=0;entryDy=0;endArrow=none;endFill=0;strokeWidth=2;fillColor=#d5e8d4;strokeColor=#82b366;" edge="1" parent="1" source="MFOkYEO7xA5EYMrg9p0M-27" target="MFOkYEO7xA5EYMrg9p0M-16">
          <mxGeometry relative="1" as="geometry" />
        </mxCell>
        <mxCell id="MFOkYEO7xA5EYMrg9p0M-27" value="&lt;div&gt;VPP External&lt;br&gt;&lt;/div&gt;&lt;div&gt;10.10.83.4/30&lt;br&gt;&lt;/div&gt;" style="rounded=0;whiteSpace=wrap;html=1;align=center;verticalAlign=top;" vertex="1" parent="1">
          <mxGeometry x="160" y="420" width="100" height="40" as="geometry" />
        </mxCell>
        <mxCell id="MFOkYEO7xA5EYMrg9p0M-28" style="edgeStyle=orthogonalEdgeStyle;rounded=0;orthogonalLoop=1;jettySize=auto;html=1;exitX=1;exitY=0.25;exitDx=0;exitDy=0;entryX=0.075;entryY=0.029;entryDx=0;entryDy=0;entryPerimeter=0;endArrow=none;endFill=0;strokeWidth=2;fillColor=#d5e8d4;strokeColor=#82b366;" edge="1" parent="1" source="MFOkYEO7xA5EYMrg9p0M-26" target="MFOkYEO7xA5EYMrg9p0M-20">
          <mxGeometry relative="1" as="geometry">
            <Array as="points">
              <mxPoint x="309" y="380" />
            </Array>
          </mxGeometry>
        </mxCell>
      </root>
    </mxGraphModel>
  </diagram>
</mxfile>
